<svg id="svg" xmlns="http://www.w3.org/2000/svg" xmlns:xlink="http://www.w3.org/1999/xlink" width="400" height="294.4610778443114" viewBox="0, 0, 400,294.4610778443114"><g id="svgg"><path id="path0" d="M324.551 20.801 C 324.551 23.131,324.295 23.915,322.794 26.190 C 320.410 29.803,320.014 32.231,320.895 37.837 C 321.014 38.595,321.413 38.460,322.002 37.463 C 323.309 35.249,323.618 34.792,324.515 33.740 C 326.406 31.523,327.222 27.745,326.508 24.505 C 326.432 24.160,326.259 23.372,326.124 22.754 C 325.814 21.343,324.986 19.128,324.738 19.048 C 324.595 19.001,324.551 19.417,324.551 20.801 M330.925 20.040 C 330.881 20.112,331.012 20.597,331.217 21.119 C 332.722 24.958,332.973 29.557,331.807 31.887 C 331.318 32.864,330.843 33.275,328.825 34.473 C 324.920 36.791,323.110 38.481,321.892 40.943 C 320.461 43.836,320.486 48.299,321.951 51.628 C 322.388 52.619,322.392 52.752,321.984 52.533 C 319.995 51.469,319.027 49.091,319.017 45.247 C 319.011 42.834,318.975 42.779,318.117 43.916 C 315.700 47.117,315.716 53.738,318.146 55.591 C 319.295 56.467,323.532 56.933,325.720 56.423 C 328.888 55.685,329.065 55.499,327.814 54.228 C 325.297 51.672,324.999 47.953,326.990 43.974 C 327.649 42.656,328.907 41.290,329.988 40.716 C 330.849 40.260,330.792 40.159,330.904 42.353 C 331.082 45.877,331.600 47.142,333.353 48.333 C 335.267 49.634,335.458 52.222,333.832 54.836 C 333.586 55.233,333.341 55.731,333.287 55.944 C 333.178 56.377,333.128 56.378,334.731 55.917 C 335.960 55.563,339.769 55.661,340.421 56.064 C 341.387 56.661,344.646 56.090,345.976 55.090 C 349.469 52.465,349.452 43.564,345.947 39.484 C 345.116 38.516,345.076 38.556,345.170 40.267 C 345.424 44.873,343.888 50.387,342.168 51.038 C 340.842 51.540,340.620 51.061,341.012 48.540 C 342.888 36.476,339.852 25.354,333.552 21.206 C 331.879 20.104,331.100 19.758,330.925 20.040 M305.040 59.891 C 304.868 60.136,304.790 60.556,304.790 61.244 C 304.790 62.692,304.917 62.795,307.036 63.078 C 314.186 64.031,320.483 70.226,324.022 79.790 C 325.399 83.514,326.678 87.770,327.237 90.494 C 328.319 95.761,328.583 97.430,329.121 102.433 C 329.191 103.089,329.166 103.298,329.015 103.311 C 328.906 103.320,328.750 103.344,328.668 103.363 C 328.585 103.382,328.434 103.408,328.331 103.420 C 328.187 103.438,328.144 104.315,328.144 107.244 C 328.144 111.680,328.378 111.231,326.004 111.341 C 323.176 111.473,321.235 111.034,318.189 109.577 C 313.206 107.192,308.029 101.995,303.072 94.400 C 301.183 91.507,299.908 89.327,297.680 85.180 C 295.699 81.494,295.307 80.818,294.137 79.071 C 290.548 73.714,286.018 71.613,279.237 72.164 C 275.191 72.492,273.086 73.138,266.916 75.942 C 263.676 77.414,263.046 77.699,262.088 78.126 C 261.697 78.300,261.091 78.574,260.741 78.734 C 260.391 78.894,259.431 79.324,258.608 79.689 C 256.205 80.754,251.344 82.929,250.449 83.340 C 249.996 83.547,249.053 83.971,248.353 84.281 C 247.653 84.592,246.710 85.014,246.257 85.220 C 245.805 85.427,245.114 85.737,244.723 85.911 C 244.332 86.085,243.709 86.362,243.338 86.527 C 242.538 86.883,241.471 87.357,240.644 87.726 C 238.250 88.792,235.901 89.820,235.857 89.820 C 235.829 89.820,235.311 90.049,234.706 90.329 C 234.102 90.608,233.103 91.053,232.485 91.318 C 231.868 91.583,230.876 92.028,230.281 92.307 C 229.687 92.586,229.167 92.814,229.125 92.814 C 229.084 92.814,228.695 92.975,228.260 93.172 C 227.826 93.368,227.133 93.679,226.722 93.862 C 226.310 94.045,225.617 94.356,225.183 94.553 C 224.748 94.749,224.362 94.910,224.326 94.910 C 224.289 94.910,223.818 95.112,223.278 95.359 C 222.739 95.606,222.268 95.808,222.231 95.808 C 222.195 95.808,221.809 95.969,221.374 96.166 C 218.020 97.683,209.671 101.101,206.362 102.313 C 205.539 102.614,204.731 102.921,204.566 102.995 C 204.401 103.068,203.963 103.229,203.593 103.353 C 203.222 103.476,202.144 103.857,201.198 104.200 C 199.398 104.852,188.890 108.349,186.302 109.157 C 185.479 109.414,184.435 109.744,183.982 109.890 C 182.456 110.381,175.483 112.466,173.728 112.956 C 173.316 113.071,172.609 113.273,172.156 113.405 C 171.703 113.536,170.996 113.736,170.584 113.848 C 170.172 113.960,168.488 114.423,166.841 114.876 C 165.195 115.329,163.207 115.868,162.425 116.074 C 161.643 116.279,160.329 116.626,159.506 116.845 C 157.599 117.351,149.153 119.468,147.380 119.884 C 145.497 120.327,142.378 121.054,140.868 121.403 C 139.603 121.695,135.895 122.504,133.608 122.987 C 132.949 123.126,132.141 123.299,131.811 123.372 C 131.482 123.444,130.876 123.567,130.464 123.645 C 130.052 123.722,129.042 123.929,128.219 124.105 C 126.915 124.383,125.665 124.630,122.904 125.159 C 120.916 125.539,118.663 125.949,116.392 126.341 C 111.106 127.256,109.459 127.532,107.859 127.772 C 106.954 127.908,105.842 128.076,105.389 128.145 C 103.373 128.455,102.243 128.618,101.198 128.750 C 100.580 128.827,99.570 128.961,98.952 129.047 C 91.949 130.021,82.083 130.870,73.610 131.228 C 70.968 131.340,70.548 131.565,72.542 131.803 C 74.309 132.013,87.919 131.987,91.093 131.767 C 98.504 131.254,104.420 130.708,109.319 130.087 C 112.664 129.663,114.917 129.365,116.093 129.192 C 116.587 129.119,117.530 128.984,118.189 128.892 C 119.672 128.685,120.645 128.537,123.129 128.144 C 124.199 127.974,125.513 127.767,126.048 127.684 C 126.583 127.601,127.408 127.469,127.882 127.389 C 128.355 127.310,129.164 127.175,129.678 127.089 C 130.193 127.003,130.951 126.871,131.362 126.796 C 131.774 126.722,132.515 126.591,133.009 126.506 C 137.637 125.713,144.226 124.412,151.497 122.857 C 156.567 121.773,166.477 119.344,171.407 117.976 C 172.025 117.805,173.001 117.535,173.578 117.376 C 177.163 116.385,184.143 114.297,187.725 113.144 C 193.035 111.435,201.242 108.622,202.919 107.937 C 203.084 107.870,203.421 107.744,203.668 107.658 C 204.528 107.359,211.155 104.913,211.452 104.785 C 211.617 104.714,212.493 104.377,213.398 104.036 C 214.304 103.694,215.330 103.287,215.680 103.130 C 216.029 102.973,216.374 102.844,216.446 102.844 C 216.567 102.844,217.338 102.533,218.488 102.021 C 218.735 101.911,219.476 101.608,220.135 101.347 C 220.793 101.087,221.568 100.772,221.856 100.646 C 222.703 100.278,222.795 100.239,227.074 98.425 C 229.327 97.469,231.516 96.531,231.939 96.340 C 232.696 95.998,233.622 95.584,234.805 95.060 C 236.108 94.483,236.936 94.113,237.687 93.771 C 238.119 93.574,238.860 93.238,239.334 93.023 C 239.807 92.808,240.599 92.445,241.093 92.216 C 241.587 91.986,242.395 91.614,242.889 91.388 C 244.188 90.794,245.740 90.078,246.856 89.557 C 247.391 89.308,248.335 88.869,248.952 88.581 C 253.012 86.694,255.534 85.487,263.174 81.776 C 268.156 79.355,269.435 78.828,271.557 78.318 C 277.746 76.830,283.158 78.662,286.750 83.463 C 287.398 84.327,290.269 89.091,290.269 89.300 C 290.269 90.081,296.670 99.220,299.661 102.709 C 308.236 112.713,315.929 115.892,327.206 114.093 C 327.637 114.024,328.024 114.002,328.067 114.045 C 328.109 114.087,328.144 131.849,328.144 153.515 L 328.144 192.909 327.288 193.498 C 323.219 196.298,323.209 205.859,327.271 209.172 C 332.526 213.457,338.779 208.610,338.426 200.524 C 338.275 197.068,337.192 194.611,335.217 193.241 L 334.580 192.800 334.618 152.517 L 334.656 112.234 335.829 111.817 C 337.553 111.203,337.797 111.086,343.723 108.036 C 356.734 101.338,362.540 100.869,367.081 106.149 C 372.247 112.156,375.943 113.992,379.716 112.426 C 384.342 110.505,384.593 109.654,380.689 109.125 C 376.044 108.495,373.681 107.375,369.440 103.794 C 367.077 101.799,365.493 100.688,364.046 100.010 C 358.715 97.514,351.772 98.535,344.633 102.866 C 344.110 103.184,343.650 103.443,343.612 103.443 C 343.573 103.443,343.248 103.645,342.889 103.892 C 342.530 104.139,342.193 104.341,342.141 104.341 C 342.088 104.341,341.763 104.533,341.419 104.766 C 339.983 105.741,334.913 108.683,334.668 108.683 C 334.620 108.683,334.581 107.504,334.581 106.063 C 334.581 103.392,334.574 103.360,334.017 103.432 C 333.600 103.487,333.642 101.646,334.133 98.390 C 334.599 95.303,334.596 95.321,335.047 92.964 C 337.398 80.660,341.868 71.247,347.530 66.674 C 350.081 64.613,352.605 63.508,355.752 63.074 C 358.032 62.759,358.735 61.724,357.844 59.999 L 357.603 59.535 348.300 59.667 C 336.441 59.835,326.137 59.835,314.508 59.668 L 305.289 59.535 305.040 59.891 M33.034 141.267 C 32.979 141.322,32.934 141.562,32.934 141.800 C 32.934 142.038,32.868 142.515,32.788 142.860 C 32.707 143.206,32.198 145.879,31.657 148.802 C 31.115 151.725,30.477 155.127,30.237 156.362 C 29.998 157.597,29.562 159.888,29.269 161.452 C 28.976 163.016,28.641 164.768,28.525 165.344 C 28.409 165.921,28.173 167.167,27.999 168.114 C 27.826 169.061,27.621 170.138,27.545 170.509 C 27.468 170.879,27.132 172.631,26.798 174.401 C 26.464 176.171,26.130 177.923,26.055 178.293 C 25.980 178.664,25.774 179.742,25.596 180.689 C 25.418 181.635,25.144 183.084,24.985 183.907 C 24.827 184.731,24.626 185.808,24.539 186.302 C 24.452 186.796,24.322 187.470,24.250 187.799 C 24.178 188.129,24.079 188.634,24.028 188.922 C 23.978 189.210,23.667 190.861,23.337 192.590 C 22.543 196.752,21.448 202.554,21.105 204.416 C 20.954 205.240,20.695 206.584,20.531 207.405 C 20.366 208.225,20.264 208.949,20.304 209.014 C 20.434 209.223,28.056 209.157,28.312 208.945 C 28.461 208.822,28.680 207.885,28.952 206.213 C 29.179 204.813,29.453 203.196,29.560 202.620 C 29.837 201.124,31.787 189.760,32.360 186.302 C 32.442 185.808,32.567 185.067,32.638 184.656 C 32.709 184.244,33.043 182.290,33.381 180.314 C 33.719 178.338,34.124 175.981,34.281 175.075 C 34.439 174.169,34.839 171.818,35.170 169.851 C 35.875 165.665,35.889 165.631,36.380 166.916 C 36.490 167.204,36.770 167.863,37.002 168.379 C 37.235 168.896,37.425 169.349,37.425 169.386 C 37.425 169.422,37.586 169.808,37.782 170.243 C 38.277 171.339,38.874 172.730,40.047 175.524 C 40.600 176.841,41.213 178.275,41.410 178.710 C 41.606 179.144,41.766 179.530,41.766 179.567 C 41.766 179.603,41.969 180.074,42.216 180.614 C 42.463 181.153,42.665 181.624,42.665 181.661 C 42.665 181.698,42.840 182.117,43.055 182.593 C 43.270 183.069,43.546 183.694,43.669 183.982 C 43.792 184.270,43.951 184.641,44.022 184.805 C 44.796 186.595,45.757 188.858,46.025 189.521 C 46.207 189.974,46.465 190.580,46.596 190.868 C 46.820 191.356,47.740 193.512,49.248 197.081 C 49.596 197.904,50.015 198.881,50.180 199.251 C 50.346 199.622,50.567 200.127,50.672 200.374 C 50.777 200.621,51.006 201.143,51.180 201.533 C 51.354 201.923,51.497 202.275,51.497 202.315 C 51.497 202.355,51.699 202.829,51.946 203.368 C 52.193 203.908,52.395 204.379,52.395 204.416 C 52.395 204.453,52.597 204.925,52.844 205.464 C 53.091 206.003,53.293 206.475,53.293 206.511 C 53.293 206.548,53.452 206.934,53.645 207.368 C 53.838 207.803,54.186 208.615,54.418 209.174 C 54.951 210.459,55.018 210.425,55.865 208.447 C 56.249 207.548,56.667 206.576,56.793 206.287 C 56.919 205.999,57.133 205.494,57.268 205.165 C 57.582 204.400,57.820 203.844,58.216 202.958 C 58.390 202.568,58.533 202.216,58.533 202.176 C 58.533 202.136,58.735 201.662,58.982 201.123 C 59.229 200.583,59.431 200.112,59.431 200.076 C 59.431 200.039,59.592 199.653,59.790 199.219 C 60.194 198.326,62.123 193.819,64.293 188.698 C 65.095 186.804,65.842 185.052,65.952 184.805 C 66.063 184.558,66.967 182.436,67.961 180.090 C 68.956 177.743,69.834 175.689,69.913 175.524 C 69.992 175.359,70.924 173.183,71.985 170.688 C 73.046 168.193,73.973 166.141,74.045 166.129 C 74.118 166.116,74.288 166.776,74.425 167.596 C 74.562 168.416,74.750 169.525,74.842 170.060 C 74.935 170.595,75.076 171.420,75.155 171.894 C 75.441 173.599,75.626 174.638,75.762 175.299 C 75.838 175.670,76.072 177.017,76.281 178.293 C 76.490 179.570,76.863 181.793,77.111 183.234 C 77.358 184.674,77.626 186.291,77.706 186.826 C 77.786 187.362,77.882 187.900,77.920 188.024 C 77.957 188.147,78.455 191.010,79.025 194.386 C 81.181 207.146,81.498 208.910,81.653 209.017 C 82.001 209.259,89.524 209.149,89.619 208.902 C 89.696 208.700,89.456 207.262,88.695 203.368 C 88.582 202.792,88.279 201.209,88.022 199.850 C 87.764 198.492,87.393 196.538,87.197 195.509 C 87.000 194.480,86.703 192.897,86.536 191.991 C 86.245 190.418,86.122 189.776,85.788 188.099 C 85.706 187.687,85.496 186.576,85.321 185.629 C 85.146 184.682,84.804 182.863,84.561 181.587 C 84.318 180.311,84.048 178.896,83.962 178.443 C 83.876 177.990,83.746 177.317,83.673 176.946 C 83.600 176.576,83.199 174.487,82.783 172.305 C 82.366 170.124,81.959 168.001,81.879 167.590 C 81.798 167.178,81.531 165.763,81.285 164.446 C 81.039 163.129,80.774 161.714,80.695 161.302 C 80.206 158.751,79.603 155.583,79.197 153.443 C 78.940 152.085,78.665 150.636,78.585 150.225 C 78.422 149.378,77.853 146.360,77.414 144.012 C 77.252 143.147,77.075 142.154,77.020 141.804 C 76.880 140.917,76.631 141.010,76.211 142.103 C 76.014 142.618,75.699 143.377,75.512 143.790 C 75.326 144.203,75.029 144.905,74.854 145.350 C 74.679 145.795,74.412 146.433,74.261 146.769 C 74.111 147.105,73.534 148.458,72.979 149.775 C 72.425 151.093,71.676 152.864,71.315 153.712 C 70.954 154.559,70.659 155.282,70.659 155.317 C 70.659 155.352,70.497 155.736,70.299 156.171 C 70.101 156.605,69.655 157.635,69.307 158.458 C 68.959 159.281,68.552 160.230,68.402 160.566 C 68.252 160.902,67.988 161.536,67.814 161.976 C 67.641 162.416,67.372 163.056,67.216 163.398 C 67.059 163.741,66.790 164.381,66.617 164.820 C 66.444 165.260,66.178 165.894,66.028 166.230 C 65.877 166.566,65.301 167.919,64.748 169.237 C 64.195 170.554,63.554 172.070,63.325 172.605 C 63.095 173.140,62.555 174.420,62.125 175.449 C 61.695 176.478,61.182 177.676,60.986 178.111 C 60.789 178.545,60.629 178.934,60.629 178.973 C 60.629 179.013,60.494 179.348,60.329 179.717 C 60.165 180.087,59.895 180.692,59.731 181.061 C 59.566 181.431,59.431 181.766,59.431 181.805 C 59.431 181.845,59.270 182.233,59.074 182.668 C 58.877 183.102,58.308 184.435,57.808 185.629 C 55.973 190.016,55.103 191.986,54.986 192.023 C 54.920 192.044,54.704 191.641,54.508 191.128 C 54.311 190.615,53.957 189.772,53.722 189.255 C 53.486 188.739,53.293 188.283,53.293 188.243 C 53.293 188.203,53.151 187.851,52.977 187.461 C 52.802 187.071,52.575 186.549,52.470 186.302 C 52.281 185.854,51.881 184.921,51.636 184.356 C 51.564 184.192,51.194 183.316,50.813 182.410 C 50.432 181.504,49.995 180.489,49.843 180.153 C 49.691 179.817,49.423 179.177,49.248 178.730 C 49.072 178.284,48.836 177.717,48.722 177.470 C 48.507 177.005,45.005 168.724,44.353 167.141 C 44.149 166.647,43.821 165.887,43.623 165.452 C 43.425 165.017,43.263 164.632,43.263 164.595 C 43.263 164.558,43.061 164.087,42.814 163.548 C 42.567 163.009,42.365 162.512,42.365 162.444 C 42.365 162.377,42.272 162.126,42.157 161.887 C 41.853 161.253,41.642 160.760,40.071 157.036 C 36.604 148.812,35.467 146.123,35.116 145.322 C 34.999 145.054,34.760 144.470,34.585 144.024 C 34.409 143.578,34.133 142.921,33.971 142.565 C 33.808 142.209,33.611 141.749,33.533 141.542 C 33.391 141.169,33.224 141.077,33.034 141.267 M225.911 144.049 C 224.580 147.094,224.173 148.015,223.597 149.289 C 223.401 149.721,223.098 150.395,222.923 150.786 C 222.748 151.177,222.461 151.817,222.286 152.208 C 222.110 152.599,221.849 153.189,221.705 153.518 C 221.561 153.847,221.275 154.487,221.068 154.940 C 220.690 155.769,220.373 156.478,219.764 157.859 C 219.273 158.974,218.385 160.958,217.607 162.681 C 217.227 163.522,216.916 164.244,216.916 164.285 C 216.916 164.326,216.613 165.009,216.243 165.802 C 215.872 166.594,215.569 167.269,215.569 167.301 C 215.569 167.332,215.359 167.814,215.102 168.372 C 214.845 168.930,213.067 172.923,211.151 177.246 C 209.235 181.568,207.499 185.475,207.293 185.928 C 206.940 186.708,206.616 187.431,205.971 188.885 C 205.310 190.375,205.037 190.986,204.718 191.692 C 204.532 192.103,203.488 194.461,202.398 196.931 C 201.308 199.401,200.229 201.826,199.999 202.320 C 199.597 203.186,199.171 204.138,198.693 205.240 C 198.467 205.761,197.933 206.947,197.345 208.234 C 197.176 208.604,197.066 208.955,197.102 209.014 C 197.187 209.154,205.263 209.154,205.482 209.014 C 205.634 208.917,206.034 208.118,206.735 206.512 C 207.091 205.695,207.583 204.600,208.100 203.474 C 208.338 202.956,208.533 202.501,208.533 202.464 C 208.533 202.401,209.229 200.817,210.141 198.802 C 210.346 198.350,210.750 197.440,211.038 196.781 C 211.326 196.123,211.712 195.247,211.895 194.835 C 212.079 194.424,212.354 193.800,212.506 193.450 L 212.783 192.813 227.353 192.851 L 241.924 192.889 242.453 194.087 C 242.744 194.746,243.106 195.588,243.258 195.958 C 243.409 196.329,243.735 197.070,243.981 197.605 C 244.228 198.140,244.579 198.915,244.761 199.326 C 244.944 199.738,245.244 200.412,245.428 200.823 C 245.611 201.235,245.890 201.869,246.047 202.231 C 246.204 202.594,246.948 204.278,247.700 205.974 L 249.067 209.057 253.238 209.081 C 257.372 209.105,257.843 209.053,257.495 208.613 C 257.428 208.528,257.053 207.717,256.661 206.811 C 256.269 205.906,255.797 204.828,255.611 204.416 C 254.995 203.050,254.609 202.184,254.040 200.898 C 253.731 200.198,253.309 199.255,253.103 198.802 C 252.897 198.350,252.586 197.659,252.412 197.268 C 252.238 196.877,251.968 196.271,251.813 195.921 C 251.563 195.360,249.672 191.081,248.951 189.446 C 248.806 189.117,248.537 188.510,248.353 188.099 C 248.170 187.687,247.886 187.047,247.722 186.677 C 247.558 186.306,247.236 185.599,247.007 185.105 C 246.777 184.611,246.372 183.701,246.107 183.084 C 245.841 182.466,245.456 181.591,245.250 181.138 C 245.044 180.685,243.844 177.985,242.583 175.138 C 241.321 172.292,240.124 169.597,239.922 169.150 C 239.720 168.704,239.420 168.035,239.255 167.665 C 239.091 167.294,238.822 166.688,238.657 166.317 C 238.492 165.947,238.223 165.341,238.058 164.970 C 237.893 164.600,237.616 163.976,237.442 163.585 C 237.268 163.194,236.999 162.588,236.843 162.238 C 236.175 160.731,235.872 160.056,235.520 159.281 C 235.314 158.829,234.909 157.919,234.621 157.260 C 234.333 156.602,233.945 155.726,233.760 155.314 C 233.575 154.903,232.531 152.545,231.440 150.075 C 230.349 147.605,229.256 145.146,229.012 144.611 C 228.768 144.076,228.326 143.082,228.031 142.403 C 227.736 141.723,227.422 141.168,227.333 141.168 C 227.244 141.168,226.604 142.465,225.911 144.049 M175.449 142.454 C 170.438 142.830,166.060 144.727,162.873 147.904 C 159.535 151.231,158.100 154.998,158.273 159.982 C 158.516 167.012,162.627 171.789,171.894 175.805 C 172.202 175.938,172.674 176.142,172.942 176.257 C 173.209 176.371,173.765 176.614,174.177 176.796 C 174.588 176.978,175.127 177.214,175.374 177.320 C 184.491 181.230,187.502 184.595,187.231 190.569 C 186.794 200.189,177.730 205.555,169.456 201.092 C 166.090 199.276,163.484 195.065,163.475 191.430 C 163.473 190.242,163.538 190.268,161.645 190.707 C 160.963 190.865,159.899 191.100,159.281 191.230 C 154.802 192.171,155.190 191.915,155.562 193.682 C 158.068 205.575,168.447 212.503,179.790 209.854 C 189.255 207.643,195.219 199.939,195.207 189.941 C 195.196 180.811,190.417 174.717,180.090 170.663 C 179.390 170.388,178.753 170.107,178.675 170.037 C 178.597 169.967,178.442 169.910,178.331 169.910 C 178.220 169.910,177.850 169.775,177.510 169.611 C 177.169 169.446,176.832 169.311,176.761 169.311 C 176.690 169.311,176.353 169.177,176.013 169.012 C 175.672 168.847,175.330 168.713,175.253 168.713 C 174.262 168.713,169.559 165.824,168.290 164.437 C 163.038 158.691,168.156 150.173,176.871 150.157 C 180.769 150.150,183.755 151.719,186.034 154.971 C 186.483 155.613,186.908 156.138,186.978 156.138 C 187.091 156.138,188.946 155.031,191.093 153.683 C 191.504 153.425,192.010 153.127,192.216 153.022 C 192.421 152.917,192.748 152.711,192.941 152.564 L 193.292 152.297 192.801 151.485 C 189.034 145.271,182.593 141.918,175.449 142.454 M287.650 142.529 C 285.240 142.640,284.350 142.773,281.587 143.438 C 263.518 147.784,252.418 166.729,257.099 185.232 C 259.716 195.575,267.468 204.464,277.021 208.073 C 277.515 208.260,278.054 208.470,278.219 208.541 C 279.876 209.252,283.682 210.023,287.094 210.341 C 292.263 210.821,299.285 209.289,304.491 206.544 C 305.952 205.773,305.833 206.269,305.836 200.936 C 305.839 195.672,305.908 195.904,304.665 197.013 C 300.604 200.633,294.386 202.904,288.720 202.834 C 267.345 202.573,256.156 175.800,270.333 158.842 C 277.184 150.648,288.993 147.680,298.428 151.780 C 300.868 152.841,303.303 154.293,304.883 155.629 C 305.304 155.985,305.692 156.234,305.744 156.182 C 305.796 156.130,305.838 154.012,305.838 151.474 L 305.838 146.860 305.267 146.499 C 300.731 143.636,294.438 142.218,287.650 142.529 M89.139 143.902 C 89.099 144.007,89.084 145.708,89.106 147.683 L 89.147 151.272 96.669 151.311 L 104.192 151.350 104.192 180.163 L 104.192 208.976 104.528 209.059 C 104.714 209.104,106.482 209.122,108.458 209.099 L 112.051 209.057 112.089 180.203 L 112.127 151.350 119.649 151.311 L 127.171 151.272 127.171 147.530 L 127.171 143.787 108.192 143.749 C 92.931 143.719,89.198 143.749,89.139 143.902 M227.654 159.693 C 227.754 159.920,228.013 160.543,228.229 161.078 C 228.445 161.613,228.784 162.407,228.982 162.841 C 229.179 163.276,229.341 163.662,229.341 163.698 C 229.341 163.735,229.543 164.206,229.790 164.746 C 230.037 165.285,230.240 165.756,230.240 165.793 C 230.240 165.829,230.401 166.215,230.598 166.650 C 231.026 167.593,232.223 170.387,234.207 175.075 C 235.009 176.969,235.825 178.874,236.021 179.308 C 236.217 179.743,236.377 180.129,236.377 180.165 C 236.377 180.202,236.579 180.673,236.826 181.213 C 237.073 181.752,237.275 182.223,237.275 182.260 C 237.275 182.296,237.437 182.682,237.634 183.117 C 238.056 184.044,238.473 185.043,238.473 185.123 C 238.473 185.154,233.447 185.180,227.304 185.180 C 218.427 185.180,216.152 185.141,216.214 184.993 C 216.258 184.890,216.528 184.266,216.814 183.608 C 217.101 182.949,218.091 180.625,219.015 178.443 C 219.939 176.261,220.855 174.120,221.051 173.686 C 221.247 173.251,221.407 172.863,221.407 172.823 C 221.407 172.784,221.539 172.466,221.700 172.117 C 222.188 171.058,226.897 159.971,227.010 159.614 C 227.154 159.161,227.434 159.196,227.654 159.693 M127.733 196.919 C 122.630 198.566,121.816 206.195,126.473 208.730 C 132.967 212.265,139.140 203.897,133.996 198.532 C 132.515 196.988,129.736 196.272,127.733 196.919 M278.099 222.849 C 277.927 223.021,277.971 251.046,278.144 251.063 C 278.226 251.071,278.462 251.078,278.668 251.078 C 278.874 251.078,279.480 251.071,280.016 251.063 L 280.990 251.048 280.951 236.939 L 280.913 222.829 279.559 222.787 C 278.814 222.763,278.157 222.791,278.099 222.849 M285.028 222.867 C 285.028 222.929,285.027 229.278,285.027 236.976 L 285.028 250.973 286.451 251.016 L 287.874 251.059 287.874 236.907 L 287.874 222.754 286.452 222.754 C 285.670 222.754,285.029 222.805,285.028 222.867 M23.445 227.056 C 22.325 233.143,21.663 236.693,21.245 238.847 C 21.085 239.671,20.888 240.715,20.807 241.168 C 20.726 241.621,20.463 243.001,20.224 244.237 C 19.985 245.472,19.645 247.257,19.470 248.204 C 19.294 249.150,19.078 250.152,18.990 250.430 C 18.768 251.127,18.949 251.207,20.655 251.161 L 22.073 251.123 22.190 250.449 C 23.084 245.283,24.600 236.306,24.660 235.816 C 24.704 235.466,24.791 235.180,24.854 235.180 C 24.916 235.180,25.081 235.466,25.220 235.816 C 25.521 236.575,26.872 239.797,27.245 240.644 C 27.389 240.973,28.050 242.522,28.712 244.087 C 29.374 245.651,30.326 247.897,30.826 249.077 C 31.327 250.257,31.737 251.290,31.737 251.372 C 31.737 251.854,32.176 251.209,32.729 249.916 C 33.079 249.098,33.467 248.192,33.592 247.904 C 33.717 247.616,33.930 247.111,34.066 246.781 C 34.201 246.452,34.432 245.913,34.579 245.584 C 34.725 245.254,35.198 244.143,35.628 243.114 C 36.059 242.085,36.560 240.906,36.742 240.494 C 36.923 240.082,37.503 238.719,38.030 237.465 C 39.064 235.003,39.123 234.951,39.339 236.302 C 39.418 236.796,40.011 240.316,40.657 244.124 L 41.832 251.048 43.388 251.048 L 44.944 251.048 44.840 250.337 C 44.782 249.946,44.610 248.986,44.458 248.204 C 44.306 247.421,44.039 246.007,43.865 245.060 C 43.691 244.113,43.488 243.069,43.413 242.740 C 43.339 242.410,43.138 241.366,42.966 240.419 C 42.795 239.472,42.593 238.394,42.518 238.024 C 42.444 237.653,42.241 236.576,42.069 235.629 C 41.897 234.682,41.689 233.570,41.607 233.159 C 41.261 231.419,40.708 228.464,40.395 226.684 C 40.119 225.112,40.242 224.952,38.523 229.117 C 37.911 230.599,37.318 232.013,37.205 232.260 C 37.092 232.507,36.854 233.079,36.677 233.530 C 36.499 233.982,36.191 234.708,35.991 235.144 C 35.792 235.580,35.629 235.967,35.629 236.003 C 35.629 236.039,35.469 236.425,35.274 236.859 C 35.078 237.294,34.668 238.256,34.362 238.997 C 34.057 239.738,33.747 240.479,33.674 240.644 C 33.423 241.210,32.232 244.087,32.129 244.374 C 31.979 244.794,31.879 244.618,30.869 242.141 C 29.961 239.916,27.868 234.922,27.481 234.057 C 27.138 233.289,25.942 230.418,24.962 228.006 C 23.831 225.224,23.787 225.196,23.445 227.056 M136.532 226.379 C 136.135 227.314,134.369 231.386,133.965 232.298 C 133.810 232.648,133.548 233.237,133.383 233.608 C 133.219 233.978,132.942 234.601,132.768 234.993 C 132.595 235.384,132.251 236.141,132.005 236.677 C 131.759 237.212,131.437 237.953,131.289 238.323 C 131.141 238.694,130.849 239.368,130.638 239.820 C 130.427 240.273,129.572 242.193,128.737 244.087 C 126.969 248.098,126.983 248.066,126.279 249.619 C 125.571 251.181,125.582 251.198,127.278 251.195 C 129.019 251.192,128.887 251.299,129.795 249.171 C 131.016 246.310,131.048 246.236,131.364 245.596 L 131.665 244.985 136.753 244.943 C 142.907 244.893,142.374 244.787,142.948 246.166 C 143.201 246.775,143.636 247.769,143.913 248.375 C 144.190 248.981,144.538 249.798,144.686 250.192 C 145.028 251.104,144.954 251.072,146.725 251.072 C 148.465 251.072,148.396 251.099,148.128 250.521 C 147.809 249.832,146.165 246.112,144.391 242.066 C 143.506 240.049,142.554 237.904,142.275 237.300 C 141.995 236.695,141.766 236.175,141.766 236.144 C 141.766 236.112,141.605 235.731,141.408 235.296 C 141.098 234.614,139.752 231.553,137.740 226.956 C 137.069 225.423,136.960 225.371,136.532 226.379 M251.497 226.011 C 244.525 226.510,239.522 232.419,239.867 239.746 C 240.283 248.601,249.294 254.173,257.289 250.520 L 258.365 250.028 258.411 248.278 C 258.467 246.207,258.491 246.236,257.383 247.013 C 249.231 252.727,239.437 243.404,243.930 234.207 C 246.563 228.814,253.490 227.197,257.934 230.936 L 258.373 231.305 258.459 230.960 C 258.507 230.769,258.526 229.944,258.502 229.126 L 258.458 227.638 257.560 227.169 C 255.971 226.338,253.503 225.867,251.497 226.011 M73.578 226.231 C 73.331 226.314,73.012 226.442,72.869 226.515 C 72.726 226.587,72.537 226.647,72.449 226.647 C 72.155 226.647,70.543 227.829,70.093 228.376 C 68.438 230.384,68.224 233.539,69.608 235.549 C 70.514 236.867,71.492 237.571,73.952 238.677 C 76.943 240.022,77.473 240.325,78.299 241.156 C 80.062 242.931,79.924 245.738,77.982 247.594 C 75.548 249.920,71.180 248.261,70.710 244.832 C 70.602 244.048,70.511 243.956,70.034 244.149 C 69.842 244.226,69.256 244.377,68.732 244.485 C 67.628 244.711,67.550 244.828,67.810 245.865 C 69.805 253.837,80.987 253.450,82.412 245.359 C 83.148 241.184,81.186 238.316,76.272 236.383 C 72.970 235.083,71.705 233.990,71.707 232.438 C 71.713 229.181,76.469 227.711,78.672 230.285 C 78.958 230.619,79.192 230.947,79.192 231.015 C 79.192 231.309,81.044 230.459,81.713 229.859 C 82.016 229.587,80.639 227.886,79.502 227.127 C 78.008 226.129,75.159 225.698,73.578 226.231 M208.573 227.010 C 206.920 227.757,207.220 230.449,209.005 230.889 C 210.892 231.353,212.226 228.916,210.886 227.453 C 210.306 226.821,209.384 226.644,208.573 227.010 M47.704 230.040 C 47.643 230.101,47.602 231.400,47.613 232.927 L 47.632 235.704 46.907 235.778 L 46.183 235.853 46.183 237.201 L 46.183 238.548 46.856 238.559 L 47.530 238.571 47.609 244.847 C 47.652 248.299,47.703 251.140,47.721 251.160 C 47.792 251.240,50.138 251.193,50.362 251.107 C 50.573 251.026,50.599 250.332,50.599 244.819 C 50.599 239.967,50.639 238.621,50.786 238.614 C 50.889 238.609,51.478 238.592,52.096 238.577 L 53.219 238.548 53.262 237.163 L 53.305 235.778 51.955 235.778 L 50.605 235.778 50.565 232.897 L 50.524 230.015 49.169 229.972 C 48.424 229.949,47.765 229.979,47.704 230.040 M166.766 232.854 L 166.766 235.778 166.012 235.778 L 165.258 235.778 165.301 237.163 L 165.344 238.548 165.868 238.572 C 166.156 238.586,166.476 238.603,166.579 238.610 C 166.726 238.620,166.766 239.972,166.766 244.835 L 166.766 251.048 168.263 251.048 L 169.760 251.048 169.760 244.835 L 169.760 238.623 170.871 238.623 C 172.498 238.623,172.455 238.664,172.455 237.110 L 172.455 235.778 171.111 235.778 L 169.767 235.778 169.726 232.897 L 169.686 230.015 168.226 229.972 L 166.766 229.929 166.766 232.854 M137.275 232.813 C 137.275 232.974,138.710 236.424,139.615 238.440 C 139.810 238.875,139.970 239.260,139.970 239.297 C 139.970 239.334,140.170 239.801,140.415 240.335 C 140.660 240.869,140.903 241.477,140.955 241.686 L 141.050 242.066 137.076 242.066 C 132.719 242.066,132.853 242.094,133.231 241.243 C 133.690 240.213,134.039 239.396,135.488 235.966 C 136.699 233.101,137.275 232.084,137.275 232.813 M90.269 235.419 C 82.691 236.788,82.220 249.378,89.671 251.446 C 91.784 252.033,93.904 251.448,95.546 249.826 C 96.020 249.359,96.413 249.021,96.420 249.076 C 96.427 249.132,96.422 249.534,96.409 249.971 C 96.375 251.082,96.447 251.131,98.041 251.075 L 99.401 251.027 99.401 243.397 L 99.401 235.768 97.942 235.810 L 96.482 235.853 96.462 236.947 C 96.436 238.288,96.400 238.330,95.910 237.588 C 94.924 236.098,92.235 235.064,90.269 235.419 M109.022 235.478 C 108.059 235.682,107.326 236.081,106.620 236.786 C 105.820 237.585,105.838 237.590,105.838 236.602 L 105.838 235.778 104.416 235.778 L 102.994 235.778 102.994 243.413 L 102.994 251.048 104.416 251.048 L 105.838 251.048 105.838 246.415 C 105.838 239.280,106.375 238.026,109.431 238.026 C 112.291 238.026,112.479 238.477,112.575 245.584 L 112.650 251.123 113.771 251.167 C 114.387 251.192,115.044 251.174,115.230 251.127 L 115.569 251.042 115.569 246.111 C 115.569 239.567,115.353 238.234,114.056 236.756 C 113.095 235.661,110.850 235.092,109.022 235.478 M156.119 235.460 C 155.218 235.651,153.910 236.371,153.477 236.914 C 152.926 237.604,152.844 237.563,152.844 236.596 L 152.844 235.768 151.385 235.810 L 149.925 235.853 149.884 243.319 C 149.859 247.799,149.899 250.852,149.983 250.953 C 150.074 251.064,150.598 251.106,151.484 251.075 L 152.844 251.027 152.844 246.404 C 152.844 239.208,153.367 238.028,156.554 238.025 C 159.276 238.022,159.486 238.548,159.549 245.506 C 159.576 248.509,159.655 251.001,159.724 251.044 C 159.793 251.088,160.462 251.101,161.212 251.075 L 162.575 251.027 162.575 246.183 C 162.575 239.706,162.331 238.152,161.097 236.783 C 160.119 235.697,157.847 235.094,156.119 235.460 M179.416 235.421 C 175.449 235.984,172.605 239.333,172.605 243.441 C 172.605 253.023,185.814 254.809,188.183 245.548 C 189.616 239.944,185.012 234.626,179.416 235.421 M197.006 235.459 C 196.120 235.653,195.316 236.112,194.582 236.843 C 193.765 237.657,193.713 237.641,193.713 236.577 L 193.713 235.778 192.290 235.778 L 190.868 235.778 190.868 243.403 L 190.868 251.027 192.230 251.075 C 193.908 251.134,193.749 251.547,193.728 247.180 C 193.702 241.835,193.974 239.905,194.881 238.988 C 196.379 237.474,199.272 237.723,200.146 239.442 L 200.524 240.186 200.570 245.617 C 200.604 249.693,200.660 251.049,200.794 251.054 C 200.893 251.057,201.512 251.069,202.171 251.079 L 203.368 251.099 203.413 245.722 C 203.468 239.000,203.309 238.040,201.906 236.636 C 200.893 235.623,198.682 235.092,197.006 235.459 M220.509 235.466 C 214.207 236.548,211.775 244.724,216.385 249.334 C 220.396 253.345,227.191 251.958,229.254 246.707 C 231.636 240.643,226.772 234.392,220.509 235.466 M266.018 235.471 C 261.598 236.295,258.729 240.904,259.802 245.456 C 261.757 253.747,273.478 253.661,275.228 245.343 C 276.454 239.515,271.695 234.414,266.018 235.471 M296.535 235.470 C 290.905 236.240,288.654 244.951,292.900 249.537 C 295.874 252.749,301.522 252.241,304.257 248.516 C 304.972 247.542,304.953 247.478,303.720 246.744 C 302.429 245.975,302.387 245.972,302.033 246.629 C 299.926 250.541,294.175 249.224,293.743 244.730 L 293.674 244.012 299.237 244.012 C 305.681 244.012,305.069 244.221,304.810 242.114 C 304.215 237.276,301.176 234.835,296.535 235.470 M311.643 235.475 C 304.389 236.785,304.139 249.563,311.330 251.436 C 313.535 252.010,315.558 251.477,317.208 249.888 C 317.657 249.455,318.044 249.102,318.069 249.102 C 318.229 249.102,318.079 253.487,317.895 254.177 C 316.687 258.715,309.581 257.958,309.581 253.291 C 309.581 253.016,309.478 252.994,308.159 252.994 L 306.737 252.994 306.737 253.654 C 306.737 256.184,309.485 259.580,311.534 259.581 C 311.662 259.581,311.838 259.652,311.925 259.739 C 312.121 259.935,315.562 259.849,316.317 259.629 C 318.646 258.951,320.107 257.266,320.773 254.491 C 320.967 253.683,321.017 252.013,321.068 244.648 L 321.129 235.778 319.621 235.778 L 318.114 235.778 318.114 236.901 C 318.114 238.234,318.155 238.215,317.275 237.274 C 315.785 235.682,313.877 235.072,311.643 235.475 M329.416 235.473 C 324.412 236.258,321.962 242.483,324.524 247.904 C 326.751 252.617,334.039 252.915,337.132 248.419 C 337.741 247.533,337.712 247.450,336.564 246.776 C 335.229 245.992,335.274 245.992,334.748 246.757 C 332.169 250.504,327.159 249.290,326.559 244.773 L 326.459 244.016 332.054 243.976 L 337.650 243.937 337.615 242.740 C 337.468 237.694,334.128 234.734,329.416 235.473 M207.934 243.408 L 207.934 251.048 209.433 251.048 L 210.931 251.048 210.892 243.451 L 210.853 235.853 209.394 235.810 L 207.934 235.768 207.934 243.408 M93.949 238.479 C 97.658 240.275,97.319 247.399,93.460 248.714 C 90.243 249.810,87.504 247.615,87.312 243.787 C 87.099 239.523,90.494 236.806,93.949 238.479 M299.280 238.200 C 300.435 238.546,301.764 240.142,301.843 241.276 L 301.871 241.692 298.204 241.734 C 293.923 241.783,293.820 241.770,293.956 241.202 C 294.500 238.934,297.008 237.519,299.280 238.200 M315.623 238.479 C 319.359 240.345,319.040 247.394,315.160 248.716 C 311.862 249.840,308.989 247.401,308.984 243.473 C 308.978 239.411,312.375 236.856,315.623 238.479 M332.670 238.448 C 333.904 239.211,335.127 241.273,334.559 241.633 C 334.194 241.864,326.799 241.799,326.709 241.563 C 326.425 240.822,328.301 238.519,329.453 238.195 C 330.363 237.939,332.062 238.073,332.670 238.448 M181.732 238.411 C 187.355 240.080,186.287 248.761,180.464 248.719 C 176.825 248.693,174.446 244.730,176.010 241.297 C 177.099 238.907,179.435 237.729,181.732 238.411 M223.939 238.706 C 226.149 239.717,227.406 242.486,226.728 244.846 C 225.033 250.741,216.983 249.621,216.993 243.491 C 217.000 239.595,220.545 237.153,223.939 238.706 M269.350 238.604 C 272.702 240.058,273.519 244.698,270.889 247.342 C 268.537 249.708,264.609 248.984,263.104 245.907 C 261.005 241.617,265.143 236.778,269.350 238.604 M55.953 248.063 C 54.632 248.760,54.635 250.872,55.958 251.487 C 58.173 252.517,59.797 249.157,57.620 248.046 C 56.913 247.686,56.662 247.688,55.953 248.063 " stroke="none" fill="#000000" fill-rule="evenodd"></path></g></svg>